# xmcd
#
# Track frame offsets:
#	182
#	14007
#	29155
#	41667
#	55367
#	69000
#	82367
#	96010
#	109430
#	122392
#	136420
#	148652
#	162525
#	177857
#	192417
#	204230
#	217480
#	228675
#	240782
#	254997
#	268302
#	281650
#	293787
#	308212
#	321235
#	334710
#
# Disc length: 4646 seconds
#
# Revision: 2
# Processed by: cddbd v1.5.1PL2 Copyright (c) Steve Scherf et al.
# Submitted via: audiograbber 1.83.01
#
DISCID=a612241a
DTITLE=Joe Turner - Watch That Jive
DYEAR=1997
DGENRE=Blues
TTITLE0=I Got A Gal (For Every Day Of The Week)
TTITLE1=Little Bittie Gal's Blues
TTITLE2=Rebecca
TTITLE3=It's The Same Old Story
TTITLE4=S K Blues (Pt 1)
TTITLE5=S K Blues (Pt 2)
TTITLE6=Johnson And Turner Blues
TTITLE7=Watch That Jive
TTITLE8=Howlin' Winds
TTITLE9=Doggin' The Blues
TTITLE10=I Got My Discharge Papers
TTITLE11=Miss Brown Blues
TTITLE12=I'm Still In The Dark
TTITLE13=My Gal's A Jockey
TTITLE14=I Got Love For Sale
TTITLE15=Sunday Morning Blues
TTITLE16=Mad Blues
TTITLE17=It's A Low Down Dirty Shame
TTITLE18=I'm Still In The Dark
TTITLE19=Miss Brown Blues
TTITLE20=Sally-Zu-Zazz
TTITLE21=Rock Of Gibraltar
TTITLE22=Milk And Butter Blues
TTITLE23=That's When It Really Hurts
TTITLE24=I'm In Sharp When I Hit The Coast
TTITLE25=Ooh Wee Baby Blues
EXTD=
EXTT0=
EXTT1=
EXTT2=
EXTT3=
EXTT4=
EXTT5=
EXTT6=
EXTT7=
EXTT8=
EXTT9=
EXTT10=
EXTT11=
EXTT12=
EXTT13=
EXTT14=
EXTT15=
EXTT16=
EXTT17=
EXTT18=
EXTT19=
EXTT20=
EXTT21=
EXTT22=
EXTT23=
EXTT24=
EXTT25=
PLAYORDER=
